<mxfile host="app.diagrams.net" modified="2022-08-25T08:35:23.730Z" agent="5.0 (Windows NT 10.0; Win64; x64) AppleWebKit/537.36 (KHTML, like Gecko) Chrome/104.0.5112.102 Safari/537.36 Edg/104.0.1293.63" etag="OSeYa9WPDsWQ1egqjh0M" version="20.2.7" type="github">
  <diagram id="iYrUOhIXQRtHA39T7H4S" name="第 1 页">
    <mxGraphModel dx="1422" dy="794" grid="1" gridSize="10" guides="1" tooltips="1" connect="1" arrows="1" fold="1" page="1" pageScale="1" pageWidth="827" pageHeight="1169" math="0" shadow="0">
      <root>
        <mxCell id="0" />
        <mxCell id="1" parent="0" />
        <mxCell id="NIiwQRUN0ZrAghXSacfO-2" value="检测序列DSD:&amp;lt;SS/P/ES&amp;gt;&lt;br&gt;&lt;span style=&quot;color: rgb(51, 51, 51); font-family: &amp;quot;Open Sans&amp;quot;, &amp;quot;Clear Sans&amp;quot;, &amp;quot;Helvetica Neue&amp;quot;, Helvetica, Arial, sans-serif; font-size: 16px; orphans: 4; text-align: left; background-color: rgb(255, 255, 255);&quot;&gt;&amp;lt;0/↕(r0,r0)↑(r0,w1,r1)↓(r1,w0，r0)/0&amp;gt; &lt;/span&gt;" style="rounded=1;whiteSpace=wrap;html=1;" vertex="1" parent="1">
          <mxGeometry x="210" y="80" width="350" height="40" as="geometry" />
        </mxCell>
        <mxCell id="NIiwQRUN0ZrAghXSacfO-3" value="初始状态SS" style="rounded=1;whiteSpace=wrap;html=1;" vertex="1" parent="1">
          <mxGeometry x="70" y="200" width="130" height="40" as="geometry" />
        </mxCell>
        <mxCell id="NIiwQRUN0ZrAghXSacfO-4" value="扫描序列P:&lt;span style=&quot;color: rgb(51, 51, 51); font-family: &amp;quot;Open Sans&amp;quot;, &amp;quot;Clear Sans&amp;quot;, &amp;quot;Helvetica Neue&amp;quot;, Helvetica, Arial, sans-serif; font-size: 16px; orphans: 4; text-align: left; background-color: rgb(255, 255, 255);&quot;&gt;↕(r0,r0)↑(r0,w1,r1)↓(r1,w0，r0)&lt;/span&gt;" style="rounded=1;whiteSpace=wrap;html=1;" vertex="1" parent="1">
          <mxGeometry x="280" y="200" width="250" height="40" as="geometry" />
        </mxCell>
        <mxCell id="NIiwQRUN0ZrAghXSacfO-5" value="结束状态ES" style="rounded=1;whiteSpace=wrap;html=1;" vertex="1" parent="1">
          <mxGeometry x="600" y="200" width="130" height="40" as="geometry" />
        </mxCell>
        <mxCell id="NIiwQRUN0ZrAghXSacfO-7" value="" style="endArrow=classic;html=1;rounded=0;exitX=0.52;exitY=1.025;exitDx=0;exitDy=0;exitPerimeter=0;entryX=0.5;entryY=0;entryDx=0;entryDy=0;" edge="1" parent="1" source="NIiwQRUN0ZrAghXSacfO-2" target="NIiwQRUN0ZrAghXSacfO-3">
          <mxGeometry width="50" height="50" relative="1" as="geometry">
            <mxPoint x="390" y="400" as="sourcePoint" />
            <mxPoint x="440" y="350" as="targetPoint" />
          </mxGeometry>
        </mxCell>
        <mxCell id="NIiwQRUN0ZrAghXSacfO-8" value="" style="endArrow=classic;html=1;rounded=0;" edge="1" parent="1">
          <mxGeometry width="50" height="50" relative="1" as="geometry">
            <mxPoint x="390" y="120" as="sourcePoint" />
            <mxPoint x="390" y="200" as="targetPoint" />
          </mxGeometry>
        </mxCell>
        <mxCell id="NIiwQRUN0ZrAghXSacfO-9" value="" style="endArrow=classic;html=1;rounded=0;entryX=0.5;entryY=0;entryDx=0;entryDy=0;" edge="1" parent="1" target="NIiwQRUN0ZrAghXSacfO-5">
          <mxGeometry width="50" height="50" relative="1" as="geometry">
            <mxPoint x="390" y="120" as="sourcePoint" />
            <mxPoint x="440" y="350" as="targetPoint" />
          </mxGeometry>
        </mxCell>
        <mxCell id="NIiwQRUN0ZrAghXSacfO-10" value="扫描子序列S2：&lt;span style=&quot;color: rgb(51, 51, 51); font-family: &amp;quot;Open Sans&amp;quot;, &amp;quot;Clear Sans&amp;quot;, &amp;quot;Helvetica Neue&amp;quot;, Helvetica, Arial, sans-serif; font-size: 16px; orphans: 4; text-align: left; background-color: rgb(255, 255, 255);&quot;&gt;↑(r0,w1,r1)&lt;/span&gt;" style="rounded=1;whiteSpace=wrap;html=1;" vertex="1" parent="1">
          <mxGeometry x="300" y="320" width="170" height="40" as="geometry" />
        </mxCell>
        <mxCell id="NIiwQRUN0ZrAghXSacfO-11" value="扫描子序列S1:&lt;span style=&quot;color: rgb(51, 51, 51); font-family: &amp;quot;Open Sans&amp;quot;, &amp;quot;Clear Sans&amp;quot;, &amp;quot;Helvetica Neue&amp;quot;, Helvetica, Arial, sans-serif; font-size: 16px; orphans: 4; text-align: left; background-color: rgb(255, 255, 255);&quot;&gt;↕(r0,r0)&lt;/span&gt;" style="rounded=1;whiteSpace=wrap;html=1;" vertex="1" parent="1">
          <mxGeometry x="80" y="320" width="150" height="40" as="geometry" />
        </mxCell>
        <mxCell id="NIiwQRUN0ZrAghXSacfO-13" value="扫描子序列S3：&lt;span style=&quot;color: rgb(51, 51, 51); font-family: &amp;quot;Open Sans&amp;quot;, &amp;quot;Clear Sans&amp;quot;, &amp;quot;Helvetica Neue&amp;quot;, Helvetica, Arial, sans-serif; font-size: 16px; orphans: 4; text-align: left; background-color: rgb(255, 255, 255);&quot;&gt;↓(r1,w0,r0)&lt;/span&gt;" style="rounded=1;whiteSpace=wrap;html=1;" vertex="1" parent="1">
          <mxGeometry x="540" y="320" width="170" height="40" as="geometry" />
        </mxCell>
        <mxCell id="NIiwQRUN0ZrAghXSacfO-14" value="" style="endArrow=classic;html=1;rounded=0;exitX=0.5;exitY=1;exitDx=0;exitDy=0;entryX=0.5;entryY=0;entryDx=0;entryDy=0;" edge="1" parent="1" source="NIiwQRUN0ZrAghXSacfO-4" target="NIiwQRUN0ZrAghXSacfO-11">
          <mxGeometry width="50" height="50" relative="1" as="geometry">
            <mxPoint x="390" y="390" as="sourcePoint" />
            <mxPoint x="440" y="340" as="targetPoint" />
          </mxGeometry>
        </mxCell>
        <mxCell id="NIiwQRUN0ZrAghXSacfO-15" value="" style="endArrow=classic;html=1;rounded=0;exitX=0.5;exitY=1;exitDx=0;exitDy=0;entryX=0.624;entryY=0;entryDx=0;entryDy=0;entryPerimeter=0;" edge="1" parent="1" source="NIiwQRUN0ZrAghXSacfO-4" target="NIiwQRUN0ZrAghXSacfO-10">
          <mxGeometry width="50" height="50" relative="1" as="geometry">
            <mxPoint x="390" y="390" as="sourcePoint" />
            <mxPoint x="440" y="340" as="targetPoint" />
          </mxGeometry>
        </mxCell>
        <mxCell id="NIiwQRUN0ZrAghXSacfO-16" value="" style="endArrow=classic;html=1;rounded=0;entryX=0.5;entryY=0;entryDx=0;entryDy=0;" edge="1" parent="1" target="NIiwQRUN0ZrAghXSacfO-13">
          <mxGeometry width="50" height="50" relative="1" as="geometry">
            <mxPoint x="400" y="240" as="sourcePoint" />
            <mxPoint x="440" y="340" as="targetPoint" />
          </mxGeometry>
        </mxCell>
      </root>
    </mxGraphModel>
  </diagram>
</mxfile>
